<svg xmlns="http://www.w3.org/2000/svg" fill="none" viewBox="0 0 165 42" height="42" width="165"><g fill="#151319"><path d="M35.084 19.605c-.066-.535-.344-.953-.807-1.24-.52-.323-1.121-.43-1.74-.487a8.155 8.155 0 0 0-2.066.105 73.52 73.52 0 0 0-2.47.456c-.448.09-.892.21-1.336.324-.075.02-.156.043-.23.02-.14-.042-.11-.214.04-.32.134-.093.192-.113.462-.224a8.67 8.67 0 0 1 .476-.18l1.273-.425c.477-.157.969-.275 1.435-.46.675-.27 1.313-.61 1.858-1.113.367-.34.642-.725.754-1.189.094-.39.149-.5.194-.895a18 18 0 0 0 .119-1.442c.013-.397-.032-.79-.034-1.186a3.437 3.437 0 0 0-.22-1.154 2.49 2.49 0 0 0-1.36-1.447c-.696-.296-1.448-.369-2.205-.388 0 0-1.522-.187-5.573.444-1.767.275-3.202.518-4.206.754-.75.176-1.232.363-1.55.388-.19.014-.25-.04-.269-.115 0-.07.05-.148.246-.277.85-.564 3.208-1.617 4.51-2.154.477-.198.963-.38 1.418-.628.187-.102.223-.232.18-.422-.044-.185-.022-.354.146-.51a6.39 6.39 0 0 0 .52-.567c.086-.102.126-.226.06-.35-.093-.175-.186-.35-.276-.525-.17-.33-.188-.502.093-.833.135-.16.274-.316.398-.482.22-.292.23-.59.045-.868a2.952 2.952 0 0 0-.43-.527c-.3-.28-.54-.585-.688-.974-.186-.488-.665-.753-1.222-.71-1.858.146-3.685.766-5.403 1.447-.9.356-1.793.738-2.674 1.146-.917.424-1.83.86-2.717 1.347a51.922 51.922 0 0 0-2.873 1.713c-1.128.717-2.164 1.563-3.186 2.42a35.156 35.156 0 0 0-2.45 2.28c-.962.998-1.723 2.13-2.48 3.28-1.322 2.011-1.047 4.858.5 6.68.288.341.615.648 1.06.79.252.08.532.11.804.123.45.025.903-.026 1.338-.197.292-.115.58-.24.865-.368l.042-.022c.062-.028.127-.056.19-.086 1.09-.514 2.175-1.119 3.25-1.66.108-.055.224-.114.347-.119a.2.2 0 0 1 .107.025.14.14 0 0 1 .064.114c0 .087-.075.12-.137.164-.08.057-.16.111-.243.166-.163.108-.328.214-.49.324-.215.145-.428.29-.64.44-.46.326-.92.657-1.374.994a51.19 51.19 0 0 0-2.146 1.68 45.756 45.756 0 0 0-2.24 2.02c-.856.81-1.646 1.683-1.903 2.847-.148.67-.172 1.33-.03 1.98.123.568.241 1.138.4 1.697.173.611.35 1.224.594 1.807.36.867.912 1.6 1.757 2.08.448.255.96.283 1.484.168.333-.074.65-.21.94-.386a24.54 24.54 0 0 0 2.773-1.916c.953-.77 1.884-1.534 2.951-2.154.035-.02.07-.04.11-.046a.17.17 0 0 1 .184.11c.053.174-.276.39-.38.486-.5.457-.964.935-1.322 1.508-.358.572-.66 1.16-.833 1.8-.246.91-.285 1.89-.02 2.8l.01.026a4.963 4.963 0 0 0 1.821 2.615c.87.65 1.995.492 2.92-.102.355-.228.682-.5 1.033-.734 1.11-.743 2.045-1.4 3.174-2.115.545-.345 1.1-.674 1.66-.998.44-.254.878-.552 1.34-.762.09-.042.393-.15.417.023a.231.231 0 0 1-.064.174 8.58 8.58 0 0 1-.192.183c-.18.163-.458.444-.62.623-.3.327-.588.665-.859 1.016a12.659 12.659 0 0 0-1.404 2.236 3.39 3.39 0 0 0-.369 1.576c0 .203.09.4.25.528.184.148.366.236.603.225.43-.02.85-.145 1.237-.328a3.67 3.67 0 0 0 .445-.25c.148-.098.285-.232.466-.27.092-.02.198-.007.266.06.133.127.15.31.358.362.267.07.517-.193.7-.348.23-.198.44-.416.663-.622a23.81 23.81 0 0 0 1.058-1.05c.755-.787 1.59-1.5 2.44-2.188a49.26 49.26 0 0 1 2.605-1.942c.904-.637 1.882-1.22 2.674-1.992a3.1 3.1 0 0 0 .757-1.117 3.994 3.994 0 0 0 .202-2.26c-.22-1.07-.879-1.764-1.942-2.092a5.14 5.14 0 0 0-1.129-.215 7.918 7.918 0 0 0-1.158-.097 13.967 13.967 0 0 0-2.046.107 29.82 29.82 0 0 0-2.193.353c-.21.043-.42.087-.628.14a7.123 7.123 0 0 0-.409.123c-.09.03-.257.077-.326-.013-.03-.039-.024-.099 0-.143.046-.082.138-.128.214-.178.084-.057.171-.11.26-.162.17-.097.345-.186.514-.285.338-.2.682-.392 1.03-.576.655-.345 1.333-.643 2.004-.952.466-.214.931-.43 1.408-.613.864-.33 1.74-.634 2.607-.956a61.884 61.884 0 0 0 1.634-.633c.467-.188.935-.38 1.393-.592a2.12 2.12 0 0 0 1-.92c.192-.364.277-.75.334-1.144.03-.207.045-.414.051-.623.01-.323.067-.658.028-.973m87.245-5.536c-7.104 0-12.412 5.677-12.412 11.93 0 5.064 3.708 8.478 9.095 8.478 6.83 0 12.724-5.447 12.724-11.89 0-5.065-4.021-8.518-9.407-8.518Zm-3.045 19.641c-1.678 0-2.537-1.726-2.537-5.217 0-3.492 1.367-13.657 5.309-13.657 1.678 0 2.81 1.918 2.81 5.716 0 3.797-1.64 13.157-5.582 13.157v.001Zm41.942-21.324c2.084 0 3.774-1.66 3.774-3.709 0-2.048-1.69-3.708-3.774-3.708s-3.773 1.66-3.773 3.708c0 2.05 1.689 3.71 3.773 3.71Z"></path><path d="M104.69 17.782a9.095 9.095 0 0 0-.503 1.23 3.74 3.74 0 0 0-.197 1.153c0 .814.227 1.427.68 1.84.454.414 1.074.621 1.863.621.59 0 1.127-.116 1.607-.35.48-.231.894-.534 1.242-.91s.618-.806.808-1.3c.191-.49.286-.993.286-1.51 0-1.273-.628-2.431-1.686-3.16-1.53-1.051-3.544-1.34-5.369-1.323a13.644 13.644 0 0 0-3.544.506c-1.152.323-2.26.797-3.283 1.413-2.432 1.465-4.337 3.753-5.229 6.423a10.622 10.622 0 0 0-.554 3.357c.003 5.332 4.298 8.746 9.137 8.746 3.197 0 6.667-1.455 9.36-4.747l-.248-.33c-1.56 1.9-3.774 2.737-5.833 2.737-2.85 0-5.387-1.534-5.387-6.636 0-1.435.184-2.877.524-4.27.358-1.464.9-2.93 1.796-4.163.952-1.31 2.49-2.352 4.184-2.273a3.7 3.7 0 0 1 1.788.55l.03.02a23.51 23.51 0 0 0-.768 1.135 12.73 12.73 0 0 0-.7 1.24ZM89.17 32.638c-.858 0-1.365-.69-1.091-2.416l2.493-15.536H83.55l-.898 5.485c-.234-4.028-2.224-6.099-5.62-6.099-6.128 0-10.382 6.137-10.382 12.467 0 5.18 3.24 7.94 7.064 7.94 3.825 0 6.363-2.837 7.65-6.175l-.312 1.919c-.39 2.532 1.327 4.258 4.371 4.258 3.045 0 4.762-1.342 5.386-2.723l-.234-.314c-.357.828-.859 1.195-1.404 1.195Zm-12.801.077c-1.483 0-2.771-1.726-2.771-5.217 0-3.49 1.678-11.662 5.542-11.662 1.6 0 3.044 1.995 3.044 5.64 0 3.222-1.874 11.24-5.815 11.24v-.001Zm78.2-.96-.237-.312c-.358.828-.858 1.195-1.405 1.195-.858 0-1.366-.69-1.092-2.416l1.405-8.785c.702-4.373-.82-7.365-5.582-7.365-3.826 0-5.23 2.11-6.207 3.644h-.117l-1.834-3.03h-5.309c.196 1.266.196 2.57-.312 5.754l-2.147 13.426h7.026l2.264-14.04c.78-1.65 1.756-3.644 3.28-3.644 1.794 0 2.38 2.454 1.911 5.294l-1.405 8.746c-.39 2.532 1.327 4.258 4.371 4.258 3.044 0 4.76-1.342 5.386-2.723l-.002-.001Zm10.07 0-.235-.311c-.357.828-.858 1.195-1.405 1.195-.859 0-1.366-.69-1.092-2.417l2.498-15.535h-7.65c.196 1.266.196 2.57-.312 5.754l-1.561 9.782c-.39 2.532 1.327 4.258 4.37 4.258 3.045 0 4.76-1.342 5.387-2.723l-.002-.002Zm-100.13.883c-.86 0-1.366-.69-1.093-2.416L67.362 5.67h-6.635c-.737-.51-1.84-.805-3.362-.805-5.464 0-9.68 2.992-10.694 9.283l-.082.498-2.825.16-.12.737h2.795l-3.934 24.014L47.962 37l2.26-1.058 3.267-20.398h2.93l.231-1.472-2.959.17.424-2.636c.173-1.07.308-2.163.64-3.197.375-1.167 1.13-2.38 2.416-2.698.72-.178 1.604-.01 2.072.594.53.683.588 1.592.526 2.416-.067.903-.23 1.81-.374 2.704L56.39 30.222c-.39 2.532 1.328 4.258 4.372 4.258 2.061 0 4.467-.712 5.38-2.71.002-.004.005-.009.004-.014l-.233-.312c-.357.828-.858 1.195-1.404 1.195Z"></path></g><defs><clipPath id="a"><path d="M0 0h165v42H0z" fill="#fff"></path></clipPath></defs></svg>