<svg xmlns="http://www.w3.org/2000/svg" viewBox="0 0 1264.73 978.63"><defs><style>.cls-1,.cls-2,.cls-3,.cls-4{fill:#e20015;}.cls-1{opacity:0.7;}.cls-3{opacity:0.5;}.cls-4{opacity:0.2;}.cls-5{fill:#fff;}</style></defs><title>Element 1</title><g id="Ebene_2" data-name="Ebene 2"><g id="Ebene_1-2" data-name="Ebene 1"><polygon class="cls-1" points="655.35 978.63 216.97 536.9 655.35 95.18 1093.73 536.9 655.35 978.63"/><polygon class="cls-2" points="1095.54 400.19 1062.91 367.31 1095.54 334.43 1128.17 367.31 1095.54 400.19"/><polygon class="cls-2" points="1198.38 65.76 1165.75 32.88 1198.38 0 1231.01 32.88 1198.38 65.76"/><polygon class="cls-2" points="1214.74 252.68 1164.75 202.3 1214.74 151.93 1264.73 202.3 1214.74 252.68"/><polygon class="cls-2" points="1067.93 205.31 1030.71 167.81 1067.93 130.32 1105.14 167.81 1067.93 205.31"/><polygon class="cls-2" points="874.78 757.84 655.68 537.07 874.78 316.31 1093.87 537.07 874.78 757.84"/><polygon class="cls-3" points="655.35 978.63 436.25 757.86 655.35 537.1 874.44 757.86 655.35 978.63"/><polygon class="cls-3" points="655.35 536.59 436.25 315.82 655.35 95.05 874.44 315.82 655.35 536.59"/><polygon class="cls-3" points="437.37 315.79 218.28 95.02 437.37 95.02 656.47 95.02 437.37 315.79"/><polygon class="cls-3" points="436.2 757.74 655.3 978.5 436.2 978.5 217.11 978.5 436.2 757.74"/><polygon class="cls-4" points="219.1 536.62 0 757.38 0 536.62 0 315.85 219.1 536.62"/><ellipse class="cls-5" cx="876.54" cy="527.18" rx="30.39" ry="30.62"/></g></g></svg>